<?xml version="1.0" encoding="UTF-8"?>
<svg width="417px" height="111px" viewBox="0 0 417 111" version="1.1" xmlns="http://www.w3.org/2000/svg" xmlns:xlink="http://www.w3.org/1999/xlink">
    <!-- Generator: Sketch 53.1 (72631) - https://sketchapp.com -->
    <title>logo copy</title>
    <desc>Created with Sketch.</desc>
    <g id="Page-1" stroke="none" stroke-width="1" fill="none" fill-rule="evenodd">
        <g id="logo-copy" transform="translate(-5.000000, -30.000000)">
            <g id="Group" transform="translate(205.500000, 68.000000) scale(-1, 1) rotate(-180.000000) translate(-205.500000, -68.000000) translate(0.000000, 0.000000)">
                <path d="M53.9150562,0.617952977 C55.4680142,0.614583099 56.8256622,1.28026544 57.988,2.615 C60.084793,5.02278713 61.8866941,8.6238565 67.068691,16.3657284 C74.2831876,27.1441427 82.0183534,41.1073679 93.752,59.83 C96.1540263,63.6627603 101.242201,69.9181887 107.738,78.595 C107.85732,78.7543826 107.927214,78.9623234 107.947681,79.2188222 L107.411736,79.0458792 L62.508337,64.5560983 C62.2922601,63.5060196 62.1617213,62.5343625 62.1167208,61.6411271 C61.9880646,59.0873734 61.9791188,55.0480446 61.0536146,48.1200235 C59.642535,37.557145 57.2630155,21.7231215 53.9150562,0.617952977 Z" id="Rectangle" fill="#9F1D20"></path>
                <path d="M6.74548281,3.51861017 C7.36082064,3.39774401 7.8550425,3.53243037 8.22814837,3.92266925 C9.76391562,5.52895891 10.8699454,8.92516449 12.4190482,11.031204 C13.3891533,12.3500835 13.8629502,13.9696683 14.6717485,15.5256852 C16.109075,18.2909039 17.8142304,21.1752569 19.6109005,24.0945516 C21.1022332,26.517723 22.3412589,29.0079636 23.8243475,31.4811093 C25.1574389,33.7041251 26.7390143,35.86961 28.0074559,38.7023846 C29.0775737,41.0922484 30.2729904,42.8726354 31.2669581,44.6019489 C32.6084846,46.935948 33.7196112,49.0385511 34.9467166,51.1177642 C37.6905234,55.7668827 40.9911264,60.89937 47.5882945,71.4260507 C50.0565043,75.3644158 54.4923584,81.8720208 60.8958566,90.9488657 C61.3648846,91.6350659 56.9441597,90.0183083 47.6336817,86.0985927 C38.3232038,82.1788771 24.5426313,76.3381298 6.29196419,68.5763509 C5.6332927,67.3059194 5.36070941,61.4212695 5.4742143,50.922401 C5.5877192,40.4235324 6.01147537,24.6222689 6.74548281,3.51861017 Z" id="Rectangle-Copy" fill="#C02027" transform="translate(33.189393, 47.288975) scale(-1, 1) rotate(7.000000) translate(-33.189393, -47.288975) "></path>
                <path d="M30.2926728,47.4481173 C30.6888646,46.0810809 34.5906312,48.4597181 41.9979727,54.5840288 C49.4053142,60.7083395 60.0433293,70.5124614 73.9120179,83.9963946 C74.3537016,85.0285965 74.6806437,85.7946826 74.8928442,86.2946526 C78.0895266,93.8264216 80.4146381,99.7312058 81.8681788,104.009005 C82.3611791,105.459915 83.5601187,108.312076 84.120518,109.959431 C84.8653233,112.148867 86.0061192,114.595994 86.7707403,117.84322 C87.1046852,119.261432 88.2512756,122.410351 88.4350999,125.854164 C88.4410362,125.965375 88.4246413,126.162355 88.3859153,126.445102 L45.8639126,104.883059 C40.8320526,84.9481114 36.9739253,70.0299062 34.2895307,60.1284437 C32.1994587,52.419156 30.977478,48.3613455 30.5267548,47.5322683 C30.4413112,47.3751001 30.3632839,47.3470497 30.2926728,47.4481173 Z" id="Rectangle-Copy-2" fill="#D32027" transform="translate(59.364478, 86.759515) scale(-1, 1) rotate(-225.000000) translate(-59.364478, -86.759515) "></path>
                <path d="M147.665334,87.1682927 C146.945622,86.3634146 145.186325,83.2243902 143.666933,80.1658537 L140.948021,74.6926829 L136.54978,79.7634146 C131.031987,86.2829268 130.232307,86.9268293 127.993203,86.6853659 C127.211814,86.6936535 126.686603,86.6660363 126.417571,86.6025143 C126.362521,86.5895161 126.215322,86.5158848 126.114341,86.3729357 C126.01336,86.2299867 126.01336,86.193896 125.98814,86.039892 C125.792077,84.842647 125.714064,78.0821952 125.754098,65.7585366 C125.594162,54.3292683 125.034386,40.7268293 124.634546,35.5756098 C123.754898,24.9512195 123.754898,13.4414634 124.554578,10.4634146 C125.114354,8.2902439 127.513395,7.40487805 128.872851,8.77317073 C129.432627,9.33658537 129.832467,14.7292683 129.912435,22.697561 C129.992403,29.9414634 130.472211,40.002439 130.952019,45.0731707 C131.431827,50.1439024 131.831667,59.4 131.831667,65.597561 L131.831667,76.8658537 L135.110356,73.002439 C140.948021,66.1609756 142.467413,66.2414634 146.22591,73.3243902 C147.585366,75.9 148.784886,78.0731707 148.944822,78.0731707 C149.02479,78.0731707 149.104758,77.4292683 149.104758,76.704878 C148.704918,68.6560976 150.544182,12.2341463 151.183926,11.5097561 C152.623351,9.73902439 154.942423,10.302439 155.502199,12.4756098 C155.742103,13.602439 155.662135,29.9414634 155.262295,48.9365854 C154.462615,85.397561 154.222711,87.8121951 150.544182,88.3756098 C149.664534,88.5365854 148.385046,87.9731707 147.665334,87.1682927 Z" id="Path" fill="#FFFFFF" fill-rule="nonzero"></path>
                <path d="M210.440224,87.5707317 C209.160736,85.8804878 210.120352,14.8902439 211.39984,13.1195122 C212.359456,11.8317073 213.718912,11.6707317 222.595362,11.8317073 C234.430628,11.9926829 237.069572,13.1195122 233.630948,16.5 C232.511395,17.7073171 231.231907,17.7878049 224.034786,17.304878 L215.798081,16.7414634 L215.718113,44.8317073 C215.638145,77.2682927 215.158337,86.604878 213.39904,87.7317073 C211.79968,88.7780488 211.319872,88.697561 210.440224,87.5707317 Z" id="Path" fill="#FFFFFF" fill-rule="nonzero"></path>
                <path d="M268.816873,86.7658537 C267.857257,85.7195122 266.017993,82.6609756 264.658537,79.8439024 L262.179528,74.8536585 L257.381447,80.4878049 C247.945222,91.4341463 247.62535,91.1121951 247.305478,67.9317073 C247.145542,57.7902439 246.665734,44.5902439 246.185926,38.6341463 C245.146341,24.5487805 245.146341,11.5902439 246.185926,9.57804878 C247.065574,7.96829268 249.784486,7.48536585 250.504198,8.77317073 C250.82407,9.17560976 251.143942,15.6146341 251.303878,23.1 C251.543782,30.504878 252.023591,44.9926829 252.503399,55.1341463 C252.983207,65.3560976 253.303079,74.2902439 253.383047,75.0146341 C253.383047,75.9804878 254.342663,75.3365854 256.741703,72.7609756 C261.29988,67.7707317 262.659336,67.1268293 264.738505,68.9780488 C265.698121,69.7829268 267.217513,72.1170732 268.177129,74.2097561 L269.936425,78.0731707 L270.496202,70.6682927 C270.736106,66.6439024 271.055978,56.9853659 271.055978,49.1780488 C271.135946,41.3707317 271.37585,29.7804878 271.695722,23.4219512 C272.095562,13.6829268 272.415434,11.6707317 273.534986,10.9463415 C274.654538,10.302439 275.214314,10.3829268 276.253898,11.4292683 C277.453419,12.5560976 277.453419,15.8560976 276.733707,47.6487805 C276.093962,75.9 275.694122,83.1439024 274.654538,85.5585366 C273.215114,89.0195122 271.295882,89.4219512 268.816873,86.7658537 Z" id="Path" fill="#FFFFFF" fill-rule="nonzero"></path>
                <path d="M396.205918,87.2487805 C395.966014,86.5243902 395.486206,82.097561 395.246301,77.3487805 C395.006397,72.6804878 394.206717,66.8853659 393.566973,64.6317073 C392.607357,61.4121951 392.527389,60.1243902 393.247101,59.2390244 C394.126749,58.1926829 393.886845,49.5804878 392.047581,20.0414634 L391.487805,11.5902439 L393.726909,9.8195122 C400.604158,4.34634146 407.401439,12.395122 410.040384,29.0560976 C411.39984,37.0243902 411.159936,59.802439 409.80048,63.1829268 C408.441024,66.3219512 404.122751,69.4609756 401.803679,68.897561 C400.444222,68.5756098 400.364254,69.0585366 400.604158,78.3146341 L400.92403,88.1341463 L398.844862,88.3756098 C397.405438,88.5365854 396.52579,88.1341463 396.205918,87.2487805 Z M404.122751,61.6536585 C405.162335,60.0439024 405.402239,57.3073171 405.402239,47.6487805 C405.322271,29.6195122 402.763295,16.5804878 398.764894,14.4073171 C397.165534,13.5219512 397.085566,13.602439 397.565374,18.995122 C397.885246,22.0536585 398.52499,33.0804878 399.004798,43.4634146 C399.804478,61.4926829 400.12435,63.504878 402.283487,63.5853659 C402.603359,63.5853659 403.483007,62.7 404.122751,61.6536585 Z" id="Shape" fill="#FFFFFF" fill-rule="nonzero"></path>
                <path d="M179.412635,86.604878 C176.37385,85.2365854 174.694522,83.304878 172.855258,79.2804878 C171.57577,76.3829268 171.415834,73.2439024 171.495802,43.9463415 C171.655738,15.5341463 171.815674,11.7512195 172.935226,10.6243902 C173.97481,9.57804878 174.534586,9.49756098 175.654138,10.1414634 C176.853659,10.9463415 177.013595,12.7170732 176.853659,27.2853659 L176.693723,43.4634146 L180.452219,43.4634146 C182.531387,43.4634146 184.930428,43.704878 185.890044,43.9463415 C187.569372,44.4292683 187.569372,44.1878049 187.969212,28.5731707 C188.289084,15.2926829 188.608956,12.5560976 189.728509,11.4292683 C190.688125,10.4634146 191.407837,10.302439 192.367453,10.9463415 C193.487005,11.6707317 193.726909,15.1317073 193.966813,42.7390244 C194.126749,59.7219512 194.206717,75.4170732 194.206717,77.5097561 C194.206717,81.7756098 192.607357,85.6390244 190.288285,86.9268293 C188.129148,88.0536585 182.291483,87.8926829 179.412635,86.604878 Z M188.289084,80.004878 C188.768892,78.2341463 188.04918,50.7073171 187.569372,50.1439024 C187.489404,50.0634146 184.930428,49.6609756 181.971611,49.2585366 L176.613754,48.5341463 L176.613754,56.6634146 C176.613754,61.1707317 176.933627,67.8512195 177.413435,71.6341463 C178.053179,77.4292683 178.453019,78.7170732 180.212315,80.3268293 C181.491803,81.3731707 183.331068,82.097561 185.010396,82.097561 C187.329468,82.097561 187.889244,81.7756098 188.289084,80.004878 Z" id="Shape" fill="#FFFFFF" fill-rule="nonzero"></path>
                <path d="M297.12555,86.1219512 C293.207117,82.9829268 291.767693,78.8780488 290.808077,68.1731707 C289.848461,56.6634146 290.408237,23.3414634 291.687725,19.397561 C292.967213,15.3731707 297.685326,10.7853659 301.843663,9.65853659 C306.401839,8.37073171 310.40024,9.17560976 313.758896,12.1536585 C319.276689,17.0634146 320.396242,23.8243902 320.716114,54.7317073 C320.87605,76.5439024 320.796082,77.8317073 319.276689,80.4878049 C316.877649,84.5926829 311.839664,87.0878049 305.042383,87.5707317 C300.084366,87.8926829 299.044782,87.6512195 297.12555,86.1219512 Z M309.440624,81.2926829 C315.198321,79.6829268 315.118353,80.004878 315.038385,54.6512195 C314.878449,25.0317073 313.518992,17.6268293 308.081168,15.1317073 C304.962415,13.6829268 299.844462,15.7756098 297.765294,19.3170732 C296.245902,21.9731707 296.165934,23.3414634 296.245902,47.0853659 C296.32587,72.6 296.805678,77.5902439 299.52459,80.7292683 C300.964014,82.2585366 305.042383,82.5 309.440624,81.2926829 Z" id="Shape" fill="#FFFFFF" fill-rule="nonzero"></path>
                <path d="M360.860056,65.8390244 C359.980408,63.0219512 360.220312,11.2682927 361.179928,10.302439 C362.619352,8.85365854 364.938425,9.9804878 365.418233,12.4756098 C365.738105,13.8439024 365.978009,24.2268293 366.057977,35.7365854 L366.137945,56.502439 L368.856857,59.2390244 C370.37625,60.7682927 372.135546,61.9756098 372.855258,61.9756098 C374.854458,61.9756098 377.173531,57.3073171 377.733307,52.397561 C378.612955,44.5097561 378.772891,44.1073171 381.171931,44.4292683 C383.331068,44.6707317 383.331068,44.6707317 383.2511,50.8682927 C383.091164,63.1829268 376.293882,70.4268293 368.616953,66.402439 C366.537785,65.3560976 366.217913,65.3560976 365.338265,66.402439 C363.89884,68.1731707 361.4998,67.8512195 360.860056,65.8390244 Z" id="Path" fill="#FFFFFF" fill-rule="nonzero"></path>
            </g>
            <path d="M341,123 C341.855377,123 342.554022,122.850502 343.100522,122.276175 C343.612586,121.738038 344,120.801477 344,120 C344,119.158333 343.817635,118.432817 343.259373,117.888006 C342.718675,117.360336 341.815187,117 341,117 C339.992436,117 339.150474,117.550882 338.606441,118.312788 C338.255858,118.803772 338,119.35071 338,120 C338,120.538507 338.247261,121.032282 338.495687,121.469166 C339.011607,122.376468 339.881652,123 341,123 Z" id="Oval" fill="#FFFFFF"></path>
            <path d="M315.057104,45.8283786 C316.713958,45.8283786 317.907109,44.9450408 317.907109,43.2881866 C317.907109,41.6313323 317.127767,39.7616802 315.470913,39.7616802 C313.814059,39.7616802 312.284425,41.3431458 312.284425,43 C312.284425,44.6568542 313.400249,45.8283786 315.057104,45.8283786 Z" id="Oval-Copy" fill="#FFFFFF"></path>
            <path d="M297,44 C298.656854,44 299.766712,42.2605354 299.766712,40.6036812 C299.766712,38.9468269 298.656854,38 297,38 C295.343146,38 294.185384,38.9468269 294.185384,40.6036812 C294.185384,41.1760146 294.315471,41.9958224 294.59358,42.4508576 C295.12057,43.3131085 295.915479,44 297,44 Z" id="Oval-Copy-2" fill="#FFFFFF"></path>
            <path d="M67.6973211,37 C73.2207724,38.7131551 78.6447642,40.888026 83.9692966,43.5246126 C87.5916987,45.3183433 92.7014239,47.370749 98.8519906,50.7291077 C100.21974,51.4759319 102.672206,52.5813188 105.153819,54.3010539 C105.761572,54.7222206 106.590642,55.340469 107.61071,56.3403904 C107.725477,56.4528913 107.983296,56.7032142 107.947681,56.7811778 C107.939202,56.7997385 107.877865,56.8255523 107.789994,56.8636807 C107.70081,56.9023788 107.584332,56.9534714 107.473388,56.9827223 C107.416155,56.9978119 107.134763,57.0962153 106.629212,57.2779326 C103.963052,58.050021 101.795614,58.7266214 100.126898,59.3077338 C98.4581813,59.8888463 95.9343013,60.8459469 92.5552574,62.1790356 L80.094579,65.9170931 L73.9004064,68.4491416 L62.6334179,71.6021078 C63.9516227,66.0386623 64.7511484,62.2698299 65.031995,60.2956107 C65.9480383,53.8562576 65.6392206,50.4879213 66.062318,47.5968587 C66.6799894,43.3762547 67.2249904,39.8439685 67.6973211,37 Z" id="Rectangle" fill="#BE2025"></path>
            <rect id="Rectangle" fill-opacity="0.01" fill="#FFFFFF" x="5" y="30" width="417" height="111"></rect>
        </g>
    </g>
</svg>